<svg xmlns="http://www.w3.org/2000/svg" xmlns:svg="http://www.w3.org/2000/svg" xmlns:xlink="http://www.w3.org/1999/xlink" id="svg5" width="500" height="500" version="1.1" viewBox="0 0 132.292 132.292"><defs id="defs2"><linearGradient id="linearGradient12390"><stop style="stop-color:#06f;stop-opacity:1" id="stop12386" offset="0"/><stop style="stop-color:#ffa4d8;stop-opacity:1" id="stop12388" offset="1"/></linearGradient><clipPath id="clipPath8897" clipPathUnits="userSpaceOnUse"><path style="fill:#47b5db;fill-opacity:1;stroke-width:.999998" id="path8899" d="m 58.516115,90.924883 c -4.170259,-0.57013 -7.945707,-3.894032 -9.409623,-8.284245 -0.612942,-1.838174 -0.645544,-2.168644 -0.720127,-7.299531 -0.06463,-4.446371 -0.08221,-4.774515 -0.29305,-5.470279 -0.413385,-1.364186 -1.330113,-2.654864 -2.435212,-3.428577 -0.645736,-0.452099 -1.940811,-0.955548 -2.458058,-0.955548 -0.72616,0 -0.684848,0.19761 -0.684848,-3.275936 v -3.139215 l 0.231524,-0.05119 c 0.127341,-0.02815 0.443479,-0.07763 0.702532,-0.109948 1.742154,-0.217344 3.579212,-1.740792 4.382797,-3.634592 0.482978,-1.138232 0.544695,-1.822238 0.547063,-6.062969 0.0024,-4.361201 0.0865,-5.317972 0.620503,-7.06247 0.581451,-1.899481 1.544511,-3.592407 2.848063,-5.006496 2.039032,-2.211933 4.484954,-3.427333 7.465909,-3.709877 l 0.797475,-0.07559 v 3.225255 3.225255 h -0.38998 c -1.812994,0 -4.034695,1.639297 -4.88428,3.603897 -0.2009,0.464574 -0.416067,1.113235 -0.478149,1.441482 -0.06788,0.358918 -0.113991,2.04234 -0.115668,4.223314 -0.0016,1.99458 -0.04387,4.091043 -0.09407,4.658804 -0.131689,1.489149 -0.472398,2.856071 -1.043109,4.184939 -0.585693,1.363752 -1.200563,2.342038 -2.18471,3.475974 l -0.712168,0.820565 0.790689,0.919917 c 0.994994,1.157618 1.499997,1.970468 2.117404,3.408182 0.560171,1.304428 0.900912,2.677737 1.031894,4.158914 0.05021,0.567762 0.09254,2.664225 0.09407,4.658805 0.0016,2.180976 0.04778,3.864398 0.115665,4.223316 0.279974,1.480267 1.373801,3.196905 2.574266,4.040021 0.696437,0.489127 1.687365,0.869286 2.504819,0.960951 l 0.673327,0.0755 v 3.194166 3.194169 l -0.437324,-0.01421 c -0.240528,-0.008 -0.761458,-0.0586 -1.157624,-0.112721 z M 77.60403,87.857677 V 84.66351 l 0.68398,-0.0767 c 2.19443,-0.246068 4.08695,-1.907738 4.89509,-4.297987 0.21412,-0.633309 0.229389,-0.908478 0.293278,-5.285581 0.0725,-4.96751 0.135382,-5.642187 0.68068,-7.303476 0.60035,-1.829023 1.432441,-3.288406 2.690532,-4.7189 l 0.668578,-0.760198 -0.668578,-0.760195 c -1.258091,-1.430494 -2.090182,-2.889877 -2.690532,-4.718897 -0.545298,-1.66129 -0.608179,-2.335969 -0.68068,-7.303476 -0.0635,-4.353195 -0.0801,-4.65509 -0.289679,-5.274353 -0.81352,-2.404136 -2.71012,-4.060478 -4.939549,-4.313817 l -0.64312,-0.07308 v -3.193677 -3.193677 l 0.282969,2.64e-4 c 0.660969,7.94e-4 2.197809,0.268603 2.999571,0.522804 3.532018,1.119844 6.463768,4.114639 7.722028,7.888089 0.611251,1.833086 0.644531,2.170165 0.72076,7.299529 0.0659,4.434628 0.0842,4.776351 0.293502,5.470281 0.706819,2.34383 2.725449,4.143124 4.908188,4.374883 l 0.617402,0.06555 0.0274,3.145639 c 0.0213,2.441538 -0.0021,3.165901 -0.102899,3.236153 -0.0717,0.04978 -0.307351,0.09129 -0.523751,0.09224 -0.549569,0.0024 -1.83184,0.49494 -2.4922,0.957273 -1.10594,0.774301 -2.023388,2.066578 -2.43413,3.428574 -0.209259,0.693931 -0.2276,1.035653 -0.2935,5.470282 -0.077,5.181105 -0.109828,5.50215 -0.755679,7.389833 -1.28652,3.760208 -4.16637,6.681521 -7.687101,7.797779 -0.801769,0.254212 -2.338599,0.52206 -2.99957,0.522812 l -0.28298,2.64e-4 z"/></clipPath><linearGradient id="linearGradient12392" x1="29.331" x2="107.743" y1="91.318" y2="34.611" gradientTransform="translate(-3.1208062,-2.2658437)" gradientUnits="userSpaceOnUse" xlink:href="#linearGradient12390"/><linearGradient id="linearGradient15168" x1="29.331" x2="107.743" y1="91.318" y2="34.611" gradientTransform="translate(-3.1208062,-2.2658437)" gradientUnits="userSpaceOnUse" xlink:href="#linearGradient12390"/><linearGradient id="linearGradient15170" x1="29.331" x2="107.743" y1="91.318" y2="34.611" gradientTransform="translate(-9.2885492,-11.233341)" gradientUnits="userSpaceOnUse" xlink:href="#linearGradient12390"/><linearGradient id="linearGradient15172" x1="29.331" x2="107.743" y1="91.318" y2="34.611" gradientTransform="translate(5.1839557,-13.623205)" gradientUnits="userSpaceOnUse" xlink:href="#linearGradient12390"/><linearGradient id="linearGradient15174" x1="29.331" x2="107.743" y1="91.318" y2="34.611" gradientTransform="translate(-3.1208062,-2.2658437)" gradientUnits="userSpaceOnUse" xlink:href="#linearGradient12390"/><linearGradient id="linearGradient15176" x1="29.331" x2="107.743" y1="91.318" y2="34.611" gradientTransform="translate(2.896534,-2.2658437)" gradientUnits="userSpaceOnUse" xlink:href="#linearGradient12390"/><linearGradient id="linearGradient15178" x1="29.331" x2="107.743" y1="91.318" y2="34.611" gradientTransform="translate(-3.1208062,-2.2658437)" gradientUnits="userSpaceOnUse" xlink:href="#linearGradient12390"/></defs><g id="layer1"><g id="g11114" transform="translate(3.1208062,2.2658437)" style="fill:url(#linearGradient12392);fill-opacity:1"><g id="g10866" style="fill:url(#linearGradient15178);fill-opacity:1"><rect style="fill:url(#linearGradient15168);fill-opacity:1;stroke-width:1;stroke-linecap:round;paint-order:stroke markers fill" id="rect8719" width="35.843" height="64.018" x="33.404" y="30.41" clip-path="url(#clipPath8897)" rx="3.886" ry="8.573" transform="translate(-13.296768,0.89707363)"/><g id="g8695" transform="translate(29.248014,9.8824518)" style="fill:url(#linearGradient15174);fill-opacity:1"><path style="fill:url(#linearGradient15170);fill-opacity:1;stroke-width:3.77953;stroke-linecap:round;paint-order:stroke markers fill" id="path7972" d="m 189.93623,254.97276 c -36.5285,36.12264 -23.98889,-24.61205 -73.53627,-38.18535 -49.547372,-13.5733 -69.711593,45.07266 -82.730462,-4.62327 -13.018869,-49.69594 33.309113,-8.46897 69.837622,-44.5916 36.52851,-36.12264 -4.178273,-82.908349 45.3691,-69.335053 49.54738,13.573293 -9.32021,33.081023 3.69865,82.776953 13.01887,49.69594 73.88987,37.83569 37.36136,73.95832 z" transform="matrix(0.25623388,-0.06594344,0.06594344,0.25623388,-5.8051135,12.676068)"/><path style="fill:url(#linearGradient15172);fill-opacity:1;stroke-width:3.77953;stroke-linecap:round;paint-order:stroke markers fill" id="path7974" d="m 189.93623,254.97276 c -36.5285,36.12264 -23.98889,-24.61205 -73.53627,-38.18535 -49.547372,-13.5733 -69.711593,45.07266 -82.730462,-4.62327 -13.018869,-49.69594 33.309113,-8.46897 69.837622,-44.5916 36.52851,-36.12264 -4.178273,-82.908349 45.3691,-69.335053 49.54738,13.573293 -9.32021,33.081023 3.69865,82.776953 13.01887,49.69594 73.88987,37.83569 37.36136,73.95832 z" transform="matrix(0.06914044,-0.25538978,0.25538978,0.06914044,-17.696331,73.294774)"/></g><rect style="fill:url(#linearGradient15176);fill-opacity:1;stroke-width:.963398;stroke-linecap:round;paint-order:stroke markers fill" id="rect8955" width="35.843" height="64.018" x="33.404" y="30.41" clip-path="url(#clipPath8897)" rx="3.886" ry="8.573" transform="matrix(-1.0774278,0,0,1,154.26493,0.97770353)"/></g></g></g></svg>